<svg width="30" height="29" viewBox="0 0 30 29" fill="none" xmlns="http://www.w3.org/2000/svg">
<path fill-rule="evenodd" clip-rule="evenodd" d="M12.5614 9.44615L8.67465 1.96215C8.61044 1.84138 8.57064 1.70915 8.55753 1.573C8.54442 1.43686 8.55826 1.29946 8.59824 1.16866C8.67901 0.904499 8.8614 0.683239 9.1053 0.553556C9.34919 0.423873 9.63462 0.39639 9.89878 0.477152C10.0296 0.517141 10.1512 0.582502 10.2568 0.669502C10.3623 0.756502 10.4497 0.863439 10.5139 0.984205L14.4017 8.46821L15.9868 7.62462C16.4699 7.36778 16.9989 7.20862 17.5436 7.15624C18.0882 7.10386 18.6378 7.15928 19.161 7.31934C19.6842 7.4794 20.1708 7.74096 20.5929 8.08908C21.015 8.43721 21.3644 8.86508 21.6212 9.34825L22.296 10.6178L29.4509 21.0888L20.3506 25.9264L17.198 19.6953L15.3401 20.6357L18.5113 26.9054L14.61 28.9789L9.92858 17.1916L9.25475 15.9231C8.99786 15.44 8.83865 14.9111 8.7862 14.3665C8.73374 13.8219 8.78907 13.2723 8.94903 12.7491C9.10899 12.2259 9.37045 11.7393 9.71847 11.3172C10.0665 10.895 10.4943 10.5455 10.9773 10.2887L12.5614 9.44615ZM16.9637 9.4649L11.9542 12.1279C11.7127 12.2564 11.4988 12.4311 11.3248 12.6422C11.1508 12.8532 11.0201 13.0965 10.9401 13.3581C10.8601 13.6197 10.8324 13.8945 10.8587 14.1668C10.8849 14.4391 10.9645 14.7036 11.0929 14.9451L11.7668 16.2136L20.4558 11.5937L19.7809 10.3262C19.6525 10.0847 19.4777 9.87077 19.2667 9.69676C19.0556 9.52275 18.8123 9.39202 18.5507 9.31204C18.2891 9.23206 18.0143 9.20439 17.742 9.23062C17.4697 9.25685 17.2052 9.33646 16.9637 9.4649Z" fill="#8F8F8F"/>
<path d="M8.09014 19.6075C7.91347 19.3953 7.65975 19.262 7.38476 19.2368C7.10978 19.2116 6.83605 19.2966 6.62375 19.4732H6.62583L6.61438 19.4815L6.54981 19.5315C6.45627 19.6016 6.36076 19.6689 6.2634 19.7336C6.00512 19.9054 5.61978 20.1397 5.12403 20.3751C3.84979 20.9876 2.45524 21.3088 1.04147 21.3156C0.765255 21.3156 0.500353 21.4253 0.30504 21.6206C0.109726 21.8159 0 22.0808 0 22.357C0 22.6332 0.109726 22.8981 0.30504 23.0935C0.500353 23.2888 0.765255 23.3985 1.04147 23.3985C2.76511 23.3919 4.46565 23.0016 6.0197 22.256C6.50445 22.0265 6.97222 21.7627 7.41944 21.4666C7.58687 21.3546 7.75014 21.2364 7.90893 21.1125L7.94017 21.0885L7.95059 21.0802L7.95371 21.076H7.95579L7.95683 21.0739C8.1689 20.8971 8.30207 20.6433 8.32706 20.3683C8.35206 20.0934 8.26684 19.8197 8.09014 19.6075ZM10.2397 24.9034C10.3157 25.0172 10.3684 25.1448 10.395 25.279C10.4216 25.4132 10.4215 25.5513 10.3947 25.6854C10.3679 25.8196 10.315 25.9471 10.2389 26.0608C10.1628 26.1745 10.0651 26.272 9.95125 26.3479L9.94917 26.35L9.945 26.3521L9.93459 26.3584L9.9023 26.3792C9.72198 26.4939 9.53898 26.6043 9.35345 26.7104C8.98789 26.9197 8.4682 27.1978 7.84331 27.4748C6.61438 28.0216 4.89595 28.6059 3.12441 28.6059C2.8482 28.6059 2.58329 28.4961 2.38798 28.3008C2.19267 28.1055 2.08294 27.8406 2.08294 27.5644C2.08294 27.2882 2.19267 27.0233 2.38798 26.8279C2.58329 26.6326 2.8482 26.5229 3.12441 26.5229C4.47624 26.5229 5.88431 26.0657 6.99764 25.571C7.57767 25.3122 8.14052 25.0165 8.68274 24.6858C8.71312 24.6679 8.74299 24.6491 8.77231 24.6295L8.79314 24.617L8.79522 24.6149C8.909 24.539 9.03663 24.4863 9.17081 24.4597C9.30499 24.4331 9.4431 24.4332 9.57724 24.46C9.71138 24.4867 9.83893 24.5397 9.9526 24.6158C10.0663 24.6919 10.1638 24.7896 10.2397 24.9034Z" fill="#8F8F8F"/>
</svg>
