<svg width="163" height="172" viewBox="0 0 163 172" fill="none" xmlns="http://www.w3.org/2000/svg">
<g clip-path="url(#clip0_7240_25752)">
<path d="M45.9158 136.104C54.6809 128.444 64.548 117.334 70.1119 102.699C71.5317 98.9642 80.3039 75.8933 70.2883 69.3898C66.7606 67.0989 63.8805 68.7987 59.1183 65.8091C53.4748 62.2668 53.9061 57.6135 50.186 50.2581C47.9662 45.8694 41.4713 33.0248 30.5643 32.4015C24.0469 32.0286 16.2489 36.0368 12.6455 41.4845C7.36049 49.4752 12.1359 58.9973 20.4906 75.0081C27.8963 89.201 31.441 91.1523 36.5989 101.441C40.4269 109.077 44.7191 120.458 45.9152 136.104L45.9158 136.104Z" fill="url(#paint0_linear_7240_25752)"/>
<mask id="mask0_7240_25752" style="mask-type:luminance" maskUnits="userSpaceOnUse" x="10" y="32" width="66" height="105">
<path d="M45.9158 136.104C54.6809 128.444 64.548 117.334 70.1119 102.699C71.5317 98.9642 80.3039 75.8933 70.2883 69.3898C66.7606 67.0989 63.8805 68.7987 59.1183 65.8091C53.4748 62.2668 53.9061 57.6135 50.186 50.2581C47.9662 45.8694 41.4713 33.0248 30.5643 32.4015C24.0469 32.0286 16.2489 36.0368 12.6455 41.4845C7.36049 49.4752 12.1359 58.9973 20.4906 75.0081C27.8963 89.201 31.441 91.1523 36.5989 101.441C40.4269 109.077 44.7191 120.458 45.9152 136.104L45.9158 136.104Z" fill="white"/>
</mask>
<g mask="url(#mask0_7240_25752)">
<g style="mix-blend-mode:soft-light" opacity="0.5">
<path d="M11.3485 172L11.1814 171.645C23.3854 165.933 32.8865 157.934 39.4203 147.872C48.1257 134.467 50.8852 117.913 47.6221 98.6724C44.2237 78.6315 35.144 60.6967 28.1258 49.1806C23.2611 41.1976 15.8505 34.1572 6.09961 28.2546L6.30345 27.9194C16.1086 33.8549 23.5641 40.9401 28.4617 48.9767C35.498 60.5223 44.6007 78.5047 48.01 98.6068C51.2896 117.947 48.5109 134.595 39.7502 148.085C33.1758 158.21 23.62 166.256 11.3485 172Z" fill="white"/>
<path d="M40.5673 73.3281L40.3755 73.2904C40.3197 73.2795 34.6834 72.1554 27.8273 68.8826C21.4963 65.8607 12.7953 60.3348 7.2998 51.1714L7.6368 50.9702C13.0824 60.0499 21.7143 65.5305 27.9967 68.5294C34.1003 71.443 39.221 72.6403 40.2588 72.8656C46.0902 43.4415 31.411 28.7106 26.7638 24.891C26.6251 24.7768 26.5753 24.7358 26.5468 24.7057L26.8312 24.4351C26.8481 24.4526 26.9287 24.5187 27.0142 24.5887C31.714 28.452 46.5833 43.3693 40.6057 73.1368L40.5673 73.3281Z" fill="white"/>
<path d="M47.7757 98.5259L47.6804 98.4844C47.5188 98.4144 31.3228 91.2799 17.1384 74.6163L2.82031 57.7952L3.1195 57.5415L17.4381 74.3632C30.9973 90.2925 46.3943 97.4745 47.7429 98.0831C54.9408 93.5265 64.1109 85.7026 67.1329 74.2221C68.9444 67.3408 67.6627 62.3523 67.6496 62.3025L68.0293 62.2025C68.043 62.2528 69.3504 67.3419 67.5131 74.3222C65.8205 80.753 61.0374 90.1624 47.8645 98.4713L47.7768 98.5265L47.7757 98.5259Z" fill="white"/>
</g>
</g>
<path d="M8.23785 131.058C15.6835 126.181 25.8267 117.922 32.052 104.829C40.2166 87.6593 34.4691 77.264 40.6374 46.8624C44.5378 27.64 47.454 14.2639 58.4723 8.75599C67.107 4.44 79.6837 5.47225 86.2822 12.0146C91.7683 17.4547 93.7645 27.3409 93.7119 34.1407C93.6692 39.6825 92.2637 43.4671 94.8785 46.8454C97.5514 50.2981 101.27 49.2544 103.868 51.9192C109.136 57.3238 103.123 71.1405 102.151 73.374C91.3403 98.2147 64.3338 111.536 52.4831 117.206C42.6846 121.894 27.7599 127.815 8.2373 131.059L8.23785 131.058Z" fill="url(#paint1_linear_7240_25752)"/>
<mask id="mask1_7240_25752" style="mask-type:luminance" maskUnits="userSpaceOnUse" x="8" y="6" width="99" height="126">
<path d="M8.23785 131.058C15.6835 126.181 25.8267 117.922 32.052 104.829C40.2166 87.6593 34.4691 77.264 40.6374 46.8624C44.5378 27.64 47.454 14.2639 58.4723 8.75599C67.107 4.44 79.6837 5.47225 86.2822 12.0146C91.7683 17.4547 93.7645 27.3409 93.7119 34.1407C93.6692 39.6825 92.2637 43.4671 94.8785 46.8454C97.5514 50.2981 101.27 49.2544 103.868 51.9192C109.136 57.3238 103.123 71.1405 102.151 73.374C91.3403 98.2147 64.3338 111.536 52.4831 117.206C42.6846 121.894 27.7599 127.815 8.2373 131.059L8.23785 131.058Z" fill="white"/>
</mask>
<g mask="url(#mask1_7240_25752)">
<g style="mix-blend-mode:soft-light" opacity="0.5">
<path d="M0.0745221 134.505L0 134.12C11.8534 131.841 22.2974 128.48 31.0412 124.131C43.9412 117.716 52.7435 109.311 57.2039 99.1497C60.6966 91.1929 61.4785 82.4631 62.5607 70.3795C63.4243 60.7349 63.1646 53.8225 62.9355 47.7235C62.6363 39.7624 62.4002 33.4743 64.8397 24.8401C67.3153 16.0764 71.8151 7.71941 78.2136 0.000488281L78.5161 0.25035C72.1527 7.92663 67.6786 16.236 65.2178 24.9467C62.7952 33.5219 63.0303 39.7826 63.3279 47.7093C63.5574 53.8197 63.8177 60.7453 62.952 70.4145C61.9076 82.0787 61.0823 91.2919 57.5639 99.3071C53.0652 109.555 44.2009 118.025 31.2165 124.482C22.441 128.846 11.963 132.218 0.0745221 134.505Z" fill="white"/>
<path d="M63.3055 63.5037L63.1203 63.3818C63.0622 63.3435 57.226 59.4469 52.0379 51.8526C48.9907 47.3923 46.7572 42.547 45.3994 37.4498C43.7024 31.0791 43.3764 24.2973 44.4306 17.293L44.8191 17.3509C43.7731 24.3022 44.0958 31.0304 45.7791 37.3492C47.1255 42.4033 49.3403 47.2086 52.3623 51.6323C56.992 58.4092 62.1291 62.2085 63.1537 62.9291C71.3583 46.6072 82.5032 37.4246 90.4239 32.5908C99.0465 27.3284 105.824 25.9386 105.891 25.925L105.968 26.3093C105.901 26.3224 99.1791 27.7035 90.6129 32.9347C82.7087 37.7619 71.572 46.9494 63.4042 63.3063L63.305 63.5043L63.3055 63.5037Z" fill="white"/>
<path d="M60.3122 89.5122L60.253 89.3827C60.2065 89.2804 55.5308 79.0777 48.8364 69.7639C42.1677 60.4862 23.8189 54.4742 23.6348 54.4141L23.7559 54.0412C23.9416 54.1013 42.4121 60.1527 49.1558 69.5353C55.4623 78.3089 59.9823 87.8682 60.5511 89.0902C71.3913 87.7725 84.4475 75.5419 93.5085 65.49C103.385 54.5338 110.772 43.7312 110.846 43.6235L111.171 43.8439C111.097 43.9516 103.694 54.776 93.8 65.7524C87.9862 72.2024 82.4617 77.4429 77.3794 81.3291C71.0105 86.1995 65.3156 88.9475 60.4536 89.4969L60.3117 89.5128L60.3122 89.5122Z" fill="white"/>
<path d="M38.0427 122.757C36.2969 122.757 35.3134 122.707 35.2827 122.705L34.892 122.684L35.143 122.383C38.7688 118.044 40.6718 113.18 40.7995 107.925C40.9014 103.715 39.8713 99.2431 37.7381 94.6335C34.0985 86.7708 28.4393 81.1716 28.3828 81.1158L28.6584 80.8364C28.7154 80.8927 34.4262 86.5422 38.0948 94.4695C40.2537 99.1337 41.296 103.664 41.1924 107.935C41.0658 113.157 39.217 117.998 35.6964 122.329C37.629 122.395 46.4977 122.563 58.0694 120.666C70.1108 118.692 87.624 114.014 102.677 102.941L131.885 81.4553L132.119 81.7708L102.911 103.257C87.7917 114.379 70.21 119.074 58.1231 121.054C49.1679 122.522 41.8225 122.756 38.0438 122.756L38.0427 122.757Z" fill="white"/>
</g>
</g>
<path d="M54.6533 123.477C66.0683 125.813 80.9032 126.938 95.95 122.512C99.7901 121.383 123.512 114.407 122.648 102.515C122.344 98.3261 119.246 97.0653 118.753 91.4727C118.169 84.8462 122.145 82.3749 125.768 74.972C127.93 70.5543 134.257 57.6271 128.161 48.5812C124.518 43.1761 116.604 39.4014 110.077 39.8311C100.502 40.4615 95.7878 50.0142 88.0567 66.3334C81.2034 80.8003 81.7887 84.797 76.6938 95.1167C72.9123 102.776 66.4218 113.067 54.6544 123.477H54.6533Z" fill="url(#paint2_linear_7240_25752)"/>
<mask id="mask2_7240_25752" style="mask-type:luminance" maskUnits="userSpaceOnUse" x="54" y="39" width="77" height="87">
<path d="M54.6533 123.477C66.0683 125.813 80.9032 126.938 95.95 122.512C99.7901 121.383 123.512 114.407 122.648 102.515C122.344 98.3261 119.246 97.0653 118.753 91.4727C118.169 84.8462 122.145 82.3749 125.768 74.972C127.93 70.5543 134.257 57.6271 128.161 48.5812C124.518 43.1761 116.604 39.4014 110.077 39.8311C100.502 40.4615 95.7878 50.0142 88.0567 66.3334C81.2034 80.8003 81.7887 84.797 76.6938 95.1167C72.9123 102.776 66.4218 113.067 54.6544 123.477H54.6533Z" fill="white"/>
</mask>
<g mask="url(#mask2_7240_25752)">
<g style="mix-blend-mode:soft-light" opacity="0.5">
<path d="M36.8812 125.987C26.2887 125.987 15.6188 123.21 5.09863 117.706L5.2811 117.359C15.7432 122.833 26.3539 125.595 36.8823 125.595C38.3678 125.595 39.85 125.541 41.3317 125.43C57.2969 124.244 72.18 116.43 85.5676 102.204C99.512 87.3867 108.341 69.3278 113.291 56.7871C116.722 48.0945 117.863 37.948 116.68 26.6293L117.071 26.5889C118.26 37.9704 117.111 48.1792 113.656 56.9304C108.693 69.5028 99.8408 87.6093 85.8537 102.472C72.3964 116.771 57.4268 124.627 41.3602 125.821C39.8692 125.932 38.3755 125.987 36.8806 125.987L36.8812 125.987Z" fill="white"/>
<path d="M101.535 81.2738L101.449 81.0988C101.423 81.0474 98.9132 75.8883 97.3811 68.4608C95.9663 61.6014 95.1175 51.3456 99.1099 41.438L99.4743 41.584C95.5181 51.4013 96.3619 61.5751 97.7658 68.3815C99.1302 74.9939 101.27 79.7877 101.718 80.7489C128.733 67.5948 131.618 47.0219 131.858 41.0192C131.865 40.8399 131.868 40.7759 131.874 40.7344L132.262 40.7962C132.259 40.8197 132.255 40.9241 132.25 41.0345C132.008 47.1056 129.089 67.9425 101.711 81.1879L101.535 81.2732V81.2738Z" fill="white"/>
<path d="M103.778 105.786C98.7535 105.786 92.7841 104.851 85.8738 102.273L85.7768 102.236L85.7522 102.136C85.7105 101.965 81.614 84.7793 86.3418 63.4317L91.1139 41.8818L91.4975 41.9666L86.7253 63.5165C82.2058 83.9237 85.7812 100.503 86.1105 101.943C94.0926 104.906 105.874 107.463 116.86 102.937C123.456 100.219 126.677 96.1729 126.71 96.1325L127.019 96.3736C126.987 96.4151 123.715 100.53 117.032 103.29C113.789 104.629 109.368 105.787 103.778 105.787V105.786Z" fill="white"/>
</g>
</g>
<path d="M163.001 129.66L11.1621 128.351V132.225C11.1621 133.277 11.8246 134.171 12.721 134.331L55.6567 141.961C56.1663 142.052 56.683 142.076 57.197 142.033L161.35 133.333C162.28 133.255 163 132.358 163 131.278V129.661L163.001 129.66Z" fill="#BFC8D6"/>
<path d="M109.592 55.5116V120.333C109.592 121.151 109.351 121.914 108.874 122.479C108.41 123.034 107.8 123.399 107.097 123.452L37.3408 128.66L11.3419 130.654H11.3381L11.1622 130.584L10.5973 130.581C8.87012 130.708 7.44434 129.318 7.44434 127.528V55.8222C7.44434 54.0327 8.89149 52.4482 10.6186 52.4482H107.123C108.547 52.4482 109.593 53.8944 109.593 55.5122L109.592 55.5116Z" fill="#BFC8D6"/>
<path d="M111.164 55.5116V120.333C111.164 121.582 110.513 122.698 109.544 123.189C109.53 123.196 109.534 123.203 109.52 123.21C109.428 123.255 109.343 123.296 109.246 123.329C109.224 123.336 109.207 123.344 109.185 123.352C109.168 123.356 109.153 123.362 109.137 123.366C109.066 123.387 108.997 123.403 108.925 123.417C108.839 123.434 108.751 123.446 108.661 123.452L108.172 123.442L38.7325 128.498H38.7287L12.155 130.495C11.8991 130.514 11.6487 130.607 11.4098 130.561C11.3862 130.558 11.3648 130.654 11.3413 130.654H11.3374C11.2788 130.654 11.2147 130.545 11.1561 130.528C9.91604 130.19 9.01465 128.959 9.01465 127.528V55.8222C9.01465 54.0327 10.43 52.4482 12.1572 52.4482H108.662C110.086 52.4482 111.164 53.8944 111.164 55.5122L111.164 55.5116Z" fill="white"/>
<path d="M105.655 118.881L15.7701 125.038C14.3646 125.135 13.2227 124.028 13.2227 122.567V59.7883C13.2227 58.3274 14.3646 57.1377 15.7701 57.1317L105.655 56.7451C106.829 56.7402 107.778 57.8146 107.778 59.1459V116.326C107.778 117.657 106.829 118.801 105.655 118.881Z" fill="#D8DEE8"/>
<path d="M63.8172 54.543C63.8172 55.2095 63.3208 55.7507 62.7071 55.7529C62.0928 55.7551 61.5947 55.2149 61.5947 54.5473C61.5947 53.8798 62.0928 53.3379 62.7071 53.3374C63.3202 53.3374 63.8172 53.8765 63.8172 54.543Z" fill="white"/>
<g style="mix-blend-mode:soft-light" opacity="0.48">
<path d="M12.1559 130.539L108.173 123.487L108.662 123.45C109.315 123.402 109.909 123.08 110.362 122.592C103.452 122.215 99.1604 119.768 96.3921 117.24C90.8325 112.163 91.7969 107.157 85.8017 103.819C78.3238 99.6557 72.4442 104.931 66.7696 99.7262C63.3295 96.5704 65.0183 94.2172 60.7853 89.5015C56.097 84.2785 53.0444 86.0341 48.3325 81.3332C42.3746 75.3895 45.3543 70.7646 40.2227 66.4973C33.9969 61.3202 27.2827 66.1119 21.3566 61.1469C18.8004 59.0053 17.3982 55.8921 16.6655 52.5811H12.1564C10.4293 52.5811 9.02539 54.0321 9.02539 55.8216V127.528C9.02539 129.317 10.4293 130.665 12.1559 130.538V130.539Z" fill="white"/>
</g>
<path d="M113.21 123.057L11.1621 130.519L55.6567 138.426C56.1663 138.516 56.683 138.541 57.197 138.497L163.001 129.66L114.833 123.108C114.295 123.034 113.751 123.017 113.21 123.057L113.21 123.057Z" fill="url(#paint3_linear_7240_25752)"/>
<path d="M26.0518 130.583L111.01 124.279L137.303 127.826L53.0775 134.565L26.0518 130.583Z" fill="#D8DEE8"/>
<path d="M20.8822 146.287C18.3397 146.476 15.7446 145.873 13.5933 144.405C8.82827 141.153 8.07977 134.927 11.9297 130.543L68.1796 66.0252C70.0207 63.9295 72.754 62.707 75.6663 62.6698C78.5656 62.6332 81.3574 63.7748 83.3246 65.7945L103.872 86.8933L125.237 61.4807C128.433 57.6792 134.215 57.2248 138.144 60.4287C142.05 63.613 142.679 69.2373 139.557 73.0274L111.883 106.618C110.159 108.711 107.579 109.995 104.805 110.136C102.019 110.277 99.3112 109.25 97.389 107.315L76.6192 86.4127L28.9498 142.314C26.9021 144.696 23.9294 146.062 20.8811 146.288L20.8822 146.287Z" fill="url(#paint4_linear_7240_25752)"/>
<path d="M145.999 77.4868L120.519 56.9205L151.682 45.0758L153.887 44.9878L147.981 77.2134L145.999 77.4868Z" fill="#2B90EC"/>
<path d="M23.0883 146.199C20.5458 146.388 17.9506 145.785 15.7994 144.317C11.0343 141.065 10.2858 134.839 14.1358 130.455L70.3857 65.9373C72.2268 63.8417 74.96 62.6191 77.8724 62.582C80.7716 62.5453 83.5635 63.6869 85.5306 65.7066L106.078 86.8054L127.443 61.3928C130.639 57.5913 136.421 57.1369 140.35 60.3409C144.256 63.5251 144.885 69.1494 141.763 72.9395L114.089 106.53C112.365 108.623 109.785 109.908 107.011 110.048C104.225 110.189 101.517 109.162 99.595 107.227L78.8253 86.3248L31.1558 142.226C29.1081 144.608 26.1355 145.974 23.0872 146.2L23.0883 146.199Z" fill="#2B90EC"/>
<path d="M147.982 77.2134L122.725 56.8324L153.888 44.9878L147.982 77.2134Z" fill="#2B90EC"/>
<path d="M44.9531 150.962L59.0318 153.252C59.3266 153.3 59.6257 153.312 59.9233 153.288L61.0734 153.198L60.8828 128.229L44.9537 127.665V150.962H44.9531Z" fill="url(#paint5_linear_7240_25752)"/>
<path d="M77.1878 129.147V150.894C77.1878 151.672 76.5889 152.308 75.8141 152.354L60.6144 153.256C59.9995 153.293 59.4746 152.783 59.4746 152.15V129.494C59.4746 128.862 59.9722 128.337 60.5892 128.319L75.8985 127.894C76.6087 127.874 77.1878 128.436 77.1878 129.147V129.147Z" fill="url(#paint6_linear_7240_25752)"/>
<path d="M44.9531 127.664L59.4751 128.351L75.899 127.894L59.0608 127.347L44.9531 127.664Z" fill="url(#paint7_linear_7240_25752)"/>
<path style="mix-blend-mode:multiply" opacity="0.3" d="M75.8767 127.895L63.8868 128.228C63.2046 128.247 62.6479 128.821 62.6484 129.516C62.6495 130.676 62.8435 131.876 63.3559 133.033C65.0627 136.89 68.8782 137.033 69.6716 140.574C70.333 143.524 67.991 144.793 67.7433 148.563C67.6781 149.553 67.7642 150.618 68.0595 151.761C68.2151 152.362 68.7751 152.771 69.3861 152.735L75.9868 152.343C76.6641 152.302 77.1874 151.747 77.1874 151.067V129.169C77.1874 128.446 76.5983 127.874 75.8767 127.894V127.895Z" fill="url(#paint8_linear_7240_25752)"/>
<path d="M64.8027 153.007L70.4385 152.673V128.046L64.8027 128.203V153.007Z" fill="url(#paint9_linear_7240_25752)"/>
<path d="M65.0566 152.993L70.4387 152.673V128.046L65.0566 128.196V152.993Z" fill="url(#paint10_linear_7240_25752)"/>
<path d="M54.8532 127.441L70.5631 128.333H64.9148L51.1797 127.525L54.8532 127.441Z" fill="url(#paint11_linear_7240_25752)"/>
<path d="M62.4976 126.689C62.8636 124.453 63.131 122.819 64.5941 121.31C65.2111 120.673 65.8851 119.978 66.9903 119.794C68.261 119.582 69.8835 120.082 70.3279 121.118C70.7498 122.101 69.7558 122.742 70.1783 123.872C70.603 125.007 71.8397 124.983 71.9756 125.9C72.0901 126.676 71.3306 127.557 70.5635 127.97C69.2391 128.683 68.4867 127.68 65.8998 127.842C64.1168 127.954 63.0877 128.517 62.605 127.949C62.3754 127.678 62.3979 127.303 62.4981 126.689H62.4976Z" fill="url(#paint12_linear_7240_25752)"/>
<g style="mix-blend-mode:multiply" opacity="0.3">
<path d="M69.5791 125.814C67.9818 125.204 67.1632 123.878 66.4558 124.191C65.8273 124.47 66.2108 125.635 65.4716 126.582C64.7966 127.448 63.5593 127.653 62.459 127.654C62.4869 127.765 62.5319 127.863 62.6047 127.949C63.0875 128.517 64.1166 127.954 65.8996 127.842C68.4871 127.68 69.2388 128.683 70.5633 127.97C71.2668 127.591 71.9627 126.818 71.9841 126.094C71.2378 126.173 70.4071 126.13 69.5791 125.814V125.814Z" fill="url(#paint13_linear_7240_25752)"/>
</g>
<path d="M52.8494 121.16C53.924 120.314 55.0566 121.258 56.3794 120.328C57.7191 119.386 57.3301 117.875 58.369 117.446C59.5762 116.948 61.3641 118.467 62.22 119.431C64.3932 121.88 65.4141 126.227 63.6962 127.756C63.0513 128.33 61.2261 128.094 57.6008 127.597C53.4571 127.03 52.861 126.624 52.4642 126.092C51.3957 124.658 51.633 122.118 52.8494 121.16Z" fill="url(#paint14_linear_7240_25752)"/>
<g style="mix-blend-mode:multiply" opacity="0.3">
<path d="M59.6523 122.996C59.0551 122.808 58.7833 123.49 57.5558 123.765C57.3306 123.815 55.1662 124.266 54.0045 122.911C53.5437 122.373 53.3273 121.649 53.3525 120.883C53.1832 120.942 53.0155 121.029 52.8494 121.161C51.633 122.118 51.3957 124.658 52.4642 126.092C52.861 126.624 53.4571 127.03 57.6008 127.597C61.2261 128.094 63.0518 128.331 63.6962 127.756C63.7828 127.679 63.8606 127.593 63.9335 127.502C63.0639 127.474 62.1516 127.263 61.4924 126.625C60.2211 125.392 60.6677 123.315 59.6523 122.996Z" fill="url(#paint15_linear_7240_25752)"/>
</g>
<path d="M32.8481 121.213C32.6092 121.213 32.4048 121.031 32.3818 120.789C31.9708 116.488 30.5658 112.402 28.4244 109.282C26.5279 106.519 24.2698 104.87 22.3826 104.87H22.3766C15.5047 104.883 14.0674 120.626 14.0537 120.785C14.0312 121.042 13.8055 121.233 13.5463 121.211C13.2882 121.189 13.097 120.962 13.1189 120.705C13.1775 120.021 14.6493 103.949 22.375 103.934H22.3832C24.6123 103.934 27.0962 105.69 29.1987 108.754C31.4278 112.002 32.8903 116.245 33.316 120.701C33.3407 120.958 33.1516 121.187 32.8935 121.211C32.8782 121.213 32.8634 121.213 32.8486 121.213L32.8481 121.213Z" fill="url(#paint16_linear_7240_25752)"/>
<path d="M4.21961 153.613L13.2658 158.182L18.747 141.4L9.71562 118.901L7.15502 119.527L3.26946 151.84C3.18124 152.572 3.56152 153.28 4.22016 153.613H4.21961Z" fill="url(#paint17_linear_7240_25752)"/>
<path style="mix-blend-mode:multiply" opacity="0.52" d="M18.7464 141.4L9.715 118.901L8.20428 119.27C7.99496 122.274 8.08702 124.747 8.22894 126.547C8.83443 134.208 10.8449 136.339 9.87117 141.683C9.06129 146.126 7.29248 146.729 7.44701 149.719C7.61523 152.974 9.89144 155.701 12.5972 157.845L13.2647 158.182L18.7459 141.4H18.7464Z" fill="url(#paint18_linear_7240_25752)"/>
<path d="M9.71484 118.901H43.4443L54.6073 154.858L13.2651 158.182L9.71484 118.901Z" fill="url(#paint19_linear_7240_25752)"/>
<path d="M20.1644 121.983C19.9512 121.983 19.7589 121.837 19.7079 121.621C19.612 121.214 17.3961 111.579 20.5205 106.851C21.4159 105.495 22.6674 104.668 24.2395 104.391C32.3169 102.971 37.2902 120.282 37.4979 121.019C37.568 121.268 37.4228 121.527 37.1729 121.597C36.9231 121.667 36.6644 121.521 36.5943 121.273C36.5455 121.1 31.6501 104.037 24.4023 105.314C23.0757 105.547 22.0625 106.219 21.3036 107.366C18.3989 111.761 20.5983 121.313 20.6208 121.408C20.68 121.66 20.5233 121.912 20.2712 121.971C20.2351 121.979 20.1989 121.983 20.1638 121.983L20.1644 121.983Z" fill="url(#paint20_linear_7240_25752)"/>
<g style="mix-blend-mode:multiply" opacity="0.3">
<path d="M43.4443 118.901H26.7113C25.8861 119.738 25.3003 120.703 25.2445 121.787C24.9814 126.874 36.7028 128.545 37.8332 135.518C38.6486 140.548 33.6309 146.352 29.1541 148.937C24.4373 151.662 21.2411 150.282 18.0509 153.306C16.6492 154.635 15.7955 156.297 15.2881 158.019L54.6072 154.858L43.4443 118.901Z" fill="url(#paint21_linear_7240_25752)"/>
</g>
<path d="M20.1677 123.361C20.8919 123.361 21.479 122.776 21.479 122.053C21.479 121.33 20.8919 120.745 20.1677 120.745C19.4435 120.745 18.8564 121.33 18.8564 122.053C18.8564 122.776 19.4435 123.361 20.1677 123.361Z" fill="url(#paint22_linear_7240_25752)"/>
<path d="M38.573 122.072C38.6445 121.353 38.1182 120.712 37.3975 120.641C36.6768 120.57 36.0347 121.095 35.9633 121.814C35.8919 122.533 36.4182 123.173 37.1388 123.245C37.8595 123.316 38.5016 122.791 38.573 122.072Z" fill="url(#paint23_linear_7240_25752)"/>
<path d="M127.085 109.482C128.851 108.506 128.334 102.965 125.938 99.0709C122.537 93.5422 115.083 90.9031 113.555 92.5499C111.991 94.235 116.493 100.56 117.224 101.588C119.877 105.316 124.997 110.637 127.085 109.482H127.085Z" fill="url(#paint24_linear_7240_25752)"/>
<path d="M145.548 141.642C145.26 142.039 145.258 142.712 145.579 143.008C145.895 143.3 146.289 143.012 147.488 142.916C148.772 142.814 149.139 143.078 149.982 142.744C150.323 142.608 150.917 142.305 150.878 142.056C150.85 141.881 150.525 141.825 149.43 141.588C147.877 141.252 147.881 141.224 147.557 141.206C146.744 141.162 145.928 141.118 145.548 141.642Z" fill="url(#paint25_linear_7240_25752)"/>
<path d="M146.137 139.47L147.014 141.529C146.978 141.649 146.368 142.102 145.781 141.922L144.6 139.959L146.137 139.47H146.137Z" fill="url(#paint26_linear_7240_25752)"/>
<path d="M137.639 144.406C137.352 144.803 137.35 145.476 137.671 145.772C137.987 146.064 138.381 145.775 139.58 145.68C140.863 145.577 141.231 145.842 142.074 145.507C142.415 145.372 143.009 145.069 142.97 144.82C142.942 144.645 142.616 144.588 141.522 144.352C139.969 144.015 139.973 143.988 139.649 143.97C138.836 143.926 138.019 143.881 137.639 144.406Z" fill="url(#paint27_linear_7240_25752)"/>
<path d="M138.229 142.233L139.106 144.292C139.07 144.412 138.46 144.865 137.873 144.685L136.691 142.722L138.228 142.233H138.229Z" fill="url(#paint28_linear_7240_25752)"/>
<path d="M99.3945 92.9081C101.443 92.2115 104.573 91.4023 108.429 91.4023C112.77 91.4023 116.257 91.4034 118.664 93.4504C124.506 98.4192 117.967 110.32 121.317 119.133C121.684 120.099 122.752 123.159 121.823 126.46C121.652 127.068 121.299 127.595 120.696 128.487C117.158 133.726 107.021 135.45 102.467 130.908C100.061 128.508 98.0931 127.653 98.035 124.913C97.8065 114.101 99.4877 103.318 99.394 92.9081H99.3945Z" fill="url(#paint29_linear_7240_25752)"/>
<path style="mix-blend-mode:multiply" opacity="0.3" d="M101.704 106.116C100.877 103.855 101.734 101.267 99.8889 100.138C99.2127 99.7237 98.3721 99.5482 97.457 99.5685C97.5666 107.515 97.7233 115.454 97.9168 123.747C97.9809 126.486 98.3239 126.622 100.985 129.022C104.068 131.803 109.381 132.711 113.938 131.801C107.97 128.139 103.711 124.345 104.321 121.093C105.031 117.306 111.982 116.188 111.703 113.495C111.406 110.642 103.512 111.058 101.704 106.116H101.704Z" fill="url(#paint30_linear_7240_25752)"/>
<path d="M101.293 93.1523C99.286 91.8007 94.4514 95.2091 91.7719 98.2097C90.5264 99.6039 86.1893 104.459 87.2671 110.982C87.4425 112.044 88.2513 117.014 92.5144 119.448C96.3314 121.627 101.486 121.067 105.616 117.98C106.18 117.48 106.745 116.98 107.309 116.481C107.864 115.882 108.42 115.283 108.975 114.684C108.102 113.96 106.619 112.915 104.537 112.244C101.363 111.222 99.2762 112.738 98.5172 111.74C97.583 110.512 100.427 108.223 101.174 103.014C101.376 101.609 103.534 94.6619 101.293 93.1518L101.293 93.1523Z" fill="url(#paint31_linear_7240_25752)"/>
<path d="M105.375 128.312C104.53 132.736 106.778 130.728 111.478 127.739C116.429 124.591 127.463 119.639 132.928 123.937C136.997 127.138 135.029 133.124 141.402 138.774C142.525 139.769 143.558 140.436 144.201 140.82C145.178 140.284 146.155 139.749 147.132 139.214C147.276 136.829 147.545 127.667 140.962 120.211C139.37 118.408 136.339 114.945 131.684 113.85C119.101 110.891 106.155 124.231 105.376 128.312H105.375Z" fill="url(#paint32_linear_7240_25752)"/>
<path d="M100.102 124.85C99.5202 127.402 100.6 130.143 102.188 131.745C105.713 135.301 112.616 134.128 116.797 132.212C121.884 129.881 122.712 126.563 124.875 127.119C128.236 127.982 126.815 136.162 133.349 141.955C134.472 142.95 135.506 143.618 136.148 144.001C137.125 143.466 138.102 142.93 139.079 142.395C139.251 136.86 138.204 132.555 137.308 129.831C136.279 126.706 135.358 123.907 132.795 121.392C129.61 118.266 125.809 117.463 123.632 117.032C114.42 115.21 101.614 118.22 100.103 124.85L100.102 124.85Z" fill="url(#paint33_linear_7240_25752)"/>
<path d="M128.763 116.457L104.585 116.097L111.014 119.193L128.825 118.03L128.763 116.457Z" fill="url(#paint34_linear_7240_25752)"/>
<path d="M103.731 116.738C103.731 117.19 104.015 117.593 104.44 117.747L112.166 120.769L112.201 118.674L104.585 116.097C104.157 115.974 103.731 116.294 103.731 116.738Z" fill="url(#paint35_linear_7240_25752)"/>
<path d="M107.183 115.769C107.034 115.737 107.905 114.004 108.59 114.204C109.274 114.404 112.619 116.339 112.923 117.135L113.227 117.932C113.227 117.932 111.768 118.045 110.863 117.742C109.958 117.439 108.389 116.038 107.183 115.769Z" fill="white"/>
<path d="M112.842 103.974L111.138 119.457C111.079 119.992 111.829 120.788 112.367 120.762L137.369 119.231C137.78 119.211 138.122 118.91 138.191 118.505L141.329 103.551C141.423 103.007 140.443 102.445 139.889 102.46L113.689 103.195C113.251 103.208 112.89 103.54 112.843 103.974H112.842Z" fill="url(#paint36_linear_7240_25752)"/>
<path d="M113.414 104.425L111.709 119.909C111.651 120.443 112.084 120.903 112.622 120.878L137.94 119.682C138.351 119.663 138.693 119.361 138.763 118.957L141.349 103.934C141.443 103.39 141.014 102.897 140.46 102.912L114.26 103.647C113.823 103.659 113.461 103.991 113.414 104.425Z" fill="url(#paint37_linear_7240_25752)"/>
<path style="mix-blend-mode:multiply" opacity="0.3" d="M128.28 116.054C126.069 115.119 126.849 113.336 124.239 111.115C120.795 108.184 117.285 109.455 116.056 107.184C115.673 106.476 115.49 105.376 116.157 103.594L114.26 103.647C113.823 103.659 113.461 103.991 113.414 104.425L111.709 119.909C111.651 120.443 112.084 120.903 112.622 120.878L137.94 119.682C138.351 119.663 138.693 119.361 138.763 118.957L139.119 116.883C138.351 116.457 137.433 116.069 136.362 115.852C132.647 115.101 130.825 117.13 128.28 116.054H128.28Z" fill="url(#paint38_linear_7240_25752)"/>
<path d="M108.834 85.4849C108.848 87.0906 108.668 88.364 108.498 89.2366C108.304 90.2361 108.163 90.4941 107.985 90.7035C107.716 91.019 107.307 91.2836 105.001 91.8539C103.746 92.1644 103.585 92.1557 103.557 92.2803C103.421 92.8867 106.843 94.9523 110.379 94.4547C112.543 94.1502 114.511 92.9184 114.39 92.2716C114.269 91.6204 112.107 91.9698 111.463 90.7921C111.015 89.9731 111.517 88.8096 112.111 87.8468C111.537 86.7719 109.409 86.5609 108.834 85.4854V85.4849Z" fill="white"/>
<path d="M113.375 87.5269C114.04 87.0004 114.369 85.8648 113.988 84.9939C113.66 84.2448 112.912 83.9556 112.465 83.7823C111.167 83.2804 109.334 83.399 108.426 84.475C107.888 85.1125 108.246 86.8205 108.293 87.1234C108.346 87.4657 108.56 87.6341 108.724 87.9244C108.949 88.3274 109.301 88.9665 109.87 90.0299C109.998 89.7932 110.173 89.504 110.41 89.2032C110.502 89.0873 110.865 88.6368 111.323 88.3038C112.242 87.6368 112.744 88.0256 113.374 87.5264L113.375 87.5269Z" fill="url(#paint39_linear_7240_25752)"/>
<path d="M108.927 89.0153C108.927 89.0153 109.431 90.6835 111.212 91.0246C112.806 91.3303 113.951 87.8819 113.144 86.8776C112.875 86.5424 112.233 86.2658 111.65 86.2762C111.305 86.2827 111.161 86.3877 110.598 86.3866C110.078 86.3866 109.955 86.2964 109.776 86.3817C109.552 86.4883 109.318 86.8317 109.358 87.9372C109.137 87.5572 108.809 87.3483 108.523 87.4019C108.478 87.4107 108.351 87.4555 108.261 87.5506C107.937 87.8945 108.171 88.5014 108.929 89.0153H108.927Z" fill="white"/>
<path d="M109.759 86.1536C109.82 86.2296 109.515 86.451 109.394 86.8447C109.158 87.6091 109.701 88.7414 110.481 89.0278C110.941 89.1973 111.146 88.9464 111.95 89.0672C112.447 89.1421 112.834 89.3083 113.073 89.4292C113.098 90.3411 112.646 91.1262 111.975 91.3712C111.254 91.6347 110.539 91.1755 110.241 90.983C110.04 90.8545 109.4 90.4445 109.202 89.7085C108.994 88.942 109.474 88.6364 109.154 88.0716C108.993 87.7867 108.729 87.6123 108.562 87.0984C108.517 86.9584 108.493 86.8392 108.48 86.76C108.997 86.4374 109.671 86.0432 109.759 86.1531L109.759 86.1536Z" fill="url(#paint40_linear_7240_25752)"/>
<path d="M112.422 89.5957C112.422 89.5957 112.037 89.6842 111.46 89.4994C111.432 89.4901 111.399 89.4907 111.391 89.5044C111.363 89.5563 111.674 89.9018 112.045 89.8947C112.309 89.8898 112.56 89.7072 112.543 89.64C112.535 89.6115 112.479 89.6 112.422 89.5957Z" fill="white"/>
</g>
<defs>
<linearGradient id="paint0_linear_7240_25752" x1="81.1192" y1="65.4171" x2="47.5632" y2="79.4732" gradientUnits="userSpaceOnUse">
<stop stop-color="#FF9085"/>
<stop offset="1" stop-color="#FB6FBB"/>
</linearGradient>
<linearGradient id="paint1_linear_7240_25752" x1="20.7592" y1="37.1292" x2="74.8136" y2="107.376" gradientUnits="userSpaceOnUse">
<stop stop-color="#E38DDD"/>
<stop offset="1" stop-color="#9571F6"/>
</linearGradient>
<linearGradient id="paint2_linear_7240_25752" x1="153.887" y1="59.8775" x2="89.5902" y2="86.8103" gradientUnits="userSpaceOnUse">
<stop stop-color="#FF9085"/>
<stop offset="1" stop-color="#FB6FBB"/>
</linearGradient>
<linearGradient id="paint3_linear_7240_25752" x1="46.6302" y1="130.777" x2="198.468" y2="130.777" gradientUnits="userSpaceOnUse">
<stop offset="0.49" stop-color="#EBEFF2"/>
<stop offset="1" stop-color="white"/>
</linearGradient>
<linearGradient id="paint4_linear_7240_25752" x1="57.2906" y1="125.929" x2="-3.39846" y2="205.739" gradientUnits="userSpaceOnUse">
<stop stop-color="#F36F56"/>
<stop offset="1" stop-color="#FFC444"/>
</linearGradient>
<linearGradient id="paint5_linear_7240_25752" x1="38.9497" y1="118.532" x2="50.5082" y2="136.039" gradientUnits="userSpaceOnUse">
<stop stop-color="#AA80F9"/>
<stop offset="1" stop-color="#6165D7"/>
</linearGradient>
<linearGradient id="paint6_linear_7240_25752" x1="75.036" y1="128.935" x2="58.1154" y2="157.575" gradientUnits="userSpaceOnUse">
<stop stop-color="#AA80F9"/>
<stop offset="1" stop-color="#6165D7"/>
</linearGradient>
<linearGradient id="paint7_linear_7240_25752" x1="62.6603" y1="119.923" x2="59.9819" y2="129.382" gradientUnits="userSpaceOnUse">
<stop stop-color="#E38DDD"/>
<stop offset="1" stop-color="#9571F6"/>
</linearGradient>
<linearGradient id="paint8_linear_7240_25752" x1="76.2257" y1="129.663" x2="59.1538" y2="158.56" gradientUnits="userSpaceOnUse">
<stop stop-color="#E38DDD"/>
<stop offset="1" stop-color="#9571F6"/>
</linearGradient>
<linearGradient id="paint9_linear_7240_25752" x1="65.4932" y1="129.833" x2="72.3566" y2="164.486" gradientUnits="userSpaceOnUse">
<stop stop-color="#FFC444"/>
<stop offset="0.31" stop-color="#FBA94A"/>
<stop offset="1" stop-color="#F36F56"/>
</linearGradient>
<linearGradient id="paint10_linear_7240_25752" x1="66.5383" y1="140.613" x2="78.7462" y2="138.803" gradientUnits="userSpaceOnUse">
<stop stop-color="#FFC444"/>
<stop offset="0.31" stop-color="#FBA94A"/>
<stop offset="1" stop-color="#F36F56"/>
</linearGradient>
<linearGradient id="paint11_linear_7240_25752" x1="58.3316" y1="128.304" x2="84.2332" y2="124.464" gradientUnits="userSpaceOnUse">
<stop stop-color="#FFC444"/>
<stop offset="0.31" stop-color="#FBA94A"/>
<stop offset="1" stop-color="#F36F56"/>
</linearGradient>
<linearGradient id="paint12_linear_7240_25752" x1="71.4621" y1="120.717" x2="65.0587" y2="127.392" gradientUnits="userSpaceOnUse">
<stop stop-color="#FFC444"/>
<stop offset="0.31" stop-color="#FBA94A"/>
<stop offset="1" stop-color="#F36F56"/>
</linearGradient>
<linearGradient id="paint13_linear_7240_25752" x1="72.4953" y1="121.709" x2="66.0919" y2="128.383" gradientUnits="userSpaceOnUse">
<stop stop-color="#FFC444"/>
<stop offset="0.31" stop-color="#FBA94A"/>
<stop offset="1" stop-color="#F36F56"/>
</linearGradient>
<linearGradient id="paint14_linear_7240_25752" x1="56.2966" y1="123.372" x2="73.3408" y2="120.846" gradientUnits="userSpaceOnUse">
<stop stop-color="#FFC444"/>
<stop offset="0.31" stop-color="#FBA94A"/>
<stop offset="1" stop-color="#F36F56"/>
</linearGradient>
<linearGradient id="paint15_linear_7240_25752" x1="56.495" y1="124.71" x2="73.5392" y2="122.184" gradientUnits="userSpaceOnUse">
<stop stop-color="#FFC444"/>
<stop offset="0.31" stop-color="#FBA94A"/>
<stop offset="1" stop-color="#F36F56"/>
</linearGradient>
<linearGradient id="paint16_linear_7240_25752" x1="13.1173" y1="112.574" x2="33.3182" y2="112.574" gradientUnits="userSpaceOnUse">
<stop stop-color="#311944"/>
<stop offset="1" stop-color="#A03976"/>
</linearGradient>
<linearGradient id="paint17_linear_7240_25752" x1="-0.58103" y1="123.892" x2="10.8164" y2="143.047" gradientUnits="userSpaceOnUse">
<stop stop-color="#FF9085"/>
<stop offset="1" stop-color="#FB6FBB"/>
</linearGradient>
<linearGradient id="paint18_linear_7240_25752" x1="1.18661" y1="122.84" x2="12.5846" y2="141.995" gradientUnits="userSpaceOnUse">
<stop stop-color="#FF9085"/>
<stop offset="1" stop-color="#FB6FBB"/>
</linearGradient>
<linearGradient id="paint19_linear_7240_25752" x1="19.3249" y1="131.6" x2="51.4658" y2="156.419" gradientUnits="userSpaceOnUse">
<stop stop-color="#FF9085"/>
<stop offset="1" stop-color="#FB6FBB"/>
</linearGradient>
<linearGradient id="paint20_linear_7240_25752" x1="18.8564" y1="113.145" x2="37.516" y2="113.145" gradientUnits="userSpaceOnUse">
<stop stop-color="#311944"/>
<stop offset="1" stop-color="#A03976"/>
</linearGradient>
<linearGradient id="paint21_linear_7240_25752" x1="19.7413" y1="131.06" x2="51.8822" y2="155.88" gradientUnits="userSpaceOnUse">
<stop stop-color="#FF9085"/>
<stop offset="1" stop-color="#FB6FBB"/>
</linearGradient>
<linearGradient id="paint22_linear_7240_25752" x1="18.8564" y1="122.053" x2="21.479" y2="122.053" gradientUnits="userSpaceOnUse">
<stop stop-color="#311944"/>
<stop offset="1" stop-color="#A03976"/>
</linearGradient>
<linearGradient id="paint23_linear_7240_25752" x1="35.9673" y1="121.94" x2="38.5898" y2="121.94" gradientUnits="userSpaceOnUse">
<stop stop-color="#311944"/>
<stop offset="1" stop-color="#A03976"/>
</linearGradient>
<linearGradient id="paint24_linear_7240_25752" x1="118.866" y1="102.932" x2="122.106" y2="98.8201" gradientUnits="userSpaceOnUse">
<stop stop-color="#AA80F9"/>
<stop offset="1" stop-color="#6165D7"/>
</linearGradient>
<linearGradient id="paint25_linear_7240_25752" x1="150.445" y1="141.009" x2="145.48" y2="142.984" gradientUnits="userSpaceOnUse">
<stop stop-color="#444B8C"/>
<stop offset="1" stop-color="#26264F"/>
</linearGradient>
<linearGradient id="paint26_linear_7240_25752" x1="147.417" y1="142.22" x2="143.86" y2="138.462" gradientUnits="userSpaceOnUse">
<stop stop-color="#FFC444"/>
<stop offset="1" stop-color="#F36F56"/>
</linearGradient>
<linearGradient id="paint27_linear_7240_25752" x1="142.536" y1="143.772" x2="137.572" y2="145.747" gradientUnits="userSpaceOnUse">
<stop stop-color="#444B8C"/>
<stop offset="1" stop-color="#26264F"/>
</linearGradient>
<linearGradient id="paint28_linear_7240_25752" x1="139.509" y1="144.984" x2="135.952" y2="141.226" gradientUnits="userSpaceOnUse">
<stop stop-color="#FFC444"/>
<stop offset="1" stop-color="#F36F56"/>
</linearGradient>
<linearGradient id="paint29_linear_7240_25752" x1="100.693" y1="122.533" x2="113.99" y2="105.659" gradientUnits="userSpaceOnUse">
<stop stop-color="#AA80F9"/>
<stop offset="1" stop-color="#6165D7"/>
</linearGradient>
<linearGradient id="paint30_linear_7240_25752" x1="100.694" y1="122.007" x2="113.555" y2="105.686" gradientUnits="userSpaceOnUse">
<stop stop-color="#AA80F9"/>
<stop offset="1" stop-color="#6165D7"/>
</linearGradient>
<linearGradient id="paint31_linear_7240_25752" x1="93.3111" y1="115.325" x2="106.518" y2="98.565" gradientUnits="userSpaceOnUse">
<stop stop-color="#AA80F9"/>
<stop offset="1" stop-color="#6165D7"/>
</linearGradient>
<linearGradient id="paint32_linear_7240_25752" x1="121.636" y1="140.841" x2="136.947" y2="116.301" gradientUnits="userSpaceOnUse">
<stop stop-color="#444B8C"/>
<stop offset="1" stop-color="#26264F"/>
</linearGradient>
<linearGradient id="paint33_linear_7240_25752" x1="129.966" y1="118.847" x2="111.836" y2="144.045" gradientUnits="userSpaceOnUse">
<stop stop-color="#444B8C"/>
<stop offset="1" stop-color="#26264F"/>
</linearGradient>
<linearGradient id="paint34_linear_7240_25752" x1="120.266" y1="126.431" x2="117.352" y2="118.158" gradientUnits="userSpaceOnUse">
<stop stop-color="#311944"/>
<stop offset="1" stop-color="#893976"/>
</linearGradient>
<linearGradient id="paint35_linear_7240_25752" x1="107.488" y1="114.451" x2="108.556" y2="121.845" gradientUnits="userSpaceOnUse">
<stop stop-color="#311944"/>
<stop offset="1" stop-color="#893976"/>
</linearGradient>
<linearGradient id="paint36_linear_7240_25752" x1="128.738" y1="115.098" x2="123.052" y2="107.007" gradientUnits="userSpaceOnUse">
<stop stop-color="#444B8C"/>
<stop offset="1" stop-color="#26264F"/>
</linearGradient>
<linearGradient id="paint37_linear_7240_25752" x1="117.8" y1="128.47" x2="130.235" y2="103.156" gradientUnits="userSpaceOnUse">
<stop stop-color="#311944"/>
<stop offset="1" stop-color="#893976"/>
</linearGradient>
<linearGradient id="paint38_linear_7240_25752" x1="111.703" y1="112.236" x2="139.119" y2="112.236" gradientUnits="userSpaceOnUse">
<stop stop-color="#311944"/>
<stop offset="1" stop-color="#893976"/>
</linearGradient>
<linearGradient id="paint39_linear_7240_25752" x1="105.682" y1="93.2783" x2="112.211" y2="84.2316" gradientUnits="userSpaceOnUse">
<stop stop-color="#311944"/>
<stop offset="1" stop-color="#6B3976"/>
</linearGradient>
<linearGradient id="paint40_linear_7240_25752" x1="106.769" y1="94.0693" x2="113.305" y2="85.0142" gradientUnits="userSpaceOnUse">
<stop stop-color="#311944"/>
<stop offset="1" stop-color="#6B3976"/>
</linearGradient>
<clipPath id="clip0_7240_25752">
<rect width="163" height="172" fill="white"/>
</clipPath>
</defs>
</svg>
